<svg xmlns="http://www.w3.org/2000/svg" xml:space="preserve" width="2000" height="1500" viewBox="0 0 2000 1500" data-version="1" data-id="lg_BPbx7LERUrrRhGKgRx" x="0" y="0"><rect width="2000" height="1500" id="background" stroke="transparent" fill="#010c80"></rect><g id="outer-wrapper" data-padding="20" transform="matrix(2.6737967914438503,0,0,2.6737967914438503,-1673.7967914438505,-1255.3475935828876)"><g id="inner-wrapper" transform="matrix(0.964349376114082,0,0,0.964349376114082,10,4.099821746880565)"><rect width="372.416" height="230.328" x="440.1878909426987" y="258.8510462107208" fill="none" rx="0" ry="0" transform="translate(494.29 399.46)"></rect><path fill="#9bcee4" d="M939.3858909426988 696.6950462107209Q939.3858909426988 687.0950462107207 946.5758909426987 681.5450462107208Q953.7758909426988 675.9850462107208 964.3458909426987 675.9850462107208T981.7358909426987 680.9450462107209Q988.5458909426987 685.9050462107208 988.5458909426987 693.2550462107208Q988.5458909426987 700.6150462107208 985.3258909426987 705.1350462107208Q982.1158909426987 709.6650462107208 975.0858909426987 709.6650462107208T964.7858909426986 705.0850462107207T961.5158909426987 693.9650462107209H970.2358909426987Q970.2358909426987 701.4850462107208 975.1358909426987 701.4850462107208Q979.8258909426987 701.4850462107208 979.8258909426987 693.9650462107209Q979.8258909426987 689.3850462107208 975.6258909426987 686.7750462107208Q971.4258909426987 684.1550462107208 964.7258909426987 684.1550462107208T953.2858909426988 687.3150462107208Q948.5358909426988 690.4750462107208 948.5358909426988 695.7150462107209Q948.5358909426988 700.9450462107209 952.8458909426987 704.5350462107208Q957.1558909426988 708.1350462107208 963.4158909426988 711.2450462107208Q969.6858909426987 714.3450462107207 970.6658909426988 714.8950462107207Q971.6458909426988 715.4350462107208 974.9158909426988 717.1250462107207T979.2258909426987 719.6350462107207Q980.2558909426987 720.4550462107208 982.6058909426987 722.1950462107208Q984.9458909426987 723.9450462107208 985.8158909426987 725.2450462107208Q986.6858909426987 726.5550462107208 987.8858909426987 728.4150462107208Q989.9558909426987 731.7850462107208 989.9558909426987 736.8050462107208Q989.9558909426987 745.9550462107208 982.3858909426987 750.4850462107208Q974.8058909426987 755.0050462107208 961.4058909426986 755.0050462107208Q947.9958909426987 755.0050462107208 938.4058909426986 749.4450462107208V734.7350462107208H946.0358909426986V743.5650462107208Q953.3358909426987 746.8350462107207 961.8958909426987 746.8350462107207Q970.4458909426987 746.8350462107207 975.5158909426987 743.7750462107208Q980.5858909426987 740.7250462107207 980.5858909426987 735.9350462107208Q980.5858909426987 731.4650462107207 975.4658909426987 727.7550462107208Q971.4258909426986 725.0350462107208 960.6958909426987 719.6950462107208Q949.9558909426987 714.3450462107207 944.6758909426987 709.4450462107208Q939.3858909426987 704.5350462107208 939.3858909426987 696.6950462107208M1012.6358909426987 713.2650462107208V747.0550462107208H1022.1158909426987V754.1450462107207H994.9758909426987V747.0550462107208H1003.3658909426987V679.4750462107208H994.9758909426987V672.3950462107208H1012.6358909426988V704.9850462107208Q1023.8558909426988 698.5550462107208 1033.0158909426987 698.5550462107208T1045.7158909426987 704.1150462107208T1049.255890942699 719.4850462107208V747.6050462107208H1058.1958909426987V752.1850462107209Q1054.1658909426988 754.6850462107209 1048.8758909426988 754.6850462107209T1041.7858909426986 752.8950462107208Q1039.9958909426987 751.0950462107207 1039.9958909426987 747.0550462107208V719.4850462107208Q1039.9958909426987 713.1650462107209 1038.3558909426988 709.9450462107209Q1036.7258909426987 706.7250462107208 1030.8358909426988 706.7250462107208T1012.6358909426988 713.2650462107208M1078.5758909426988 755.2250462107208Q1071.0558909426989 755.2250462107208 1066.8058909426989 750.9150462107208Q1062.5558909426989 746.6150462107207 1062.5558909426989 739.3650462107207T1068.2258909426987 727.2150462107209Q1073.885890942699 722.3050462107208 1085.005890942699 722.3050462107208H1096.885890942699V716.7450462107208Q1096.885890942699 706.7150462107209 1087.2958909426989 706.7150462107209Q1079.235890942699 706.7150462107209 1072.475890942699 708.6850462107209V715.9850462107208H1064.845890942699V703.0150462107208Q1069.745890942699 700.9450462107209 1076.455890942699 699.7450462107208Q1083.155890942699 698.5450462107208 1087.6258909426988 698.5450462107208Q1096.345890942699 698.5450462107208 1101.245890942699 703.5050462107208Q1106.155890942699 708.4650462107209 1106.155890942699 716.7450462107208V747.5950462107209H1115.095890942699V752.1750462107209Q1111.055890942699 754.6750462107209 1105.825890942699 754.6750462107209T1098.7458909426991 752.9350462107209Q1096.885890942699 751.1950462107209 1096.885890942699 747.0450462107208Q1088.715890942699 755.2250462107208 1078.575890942699 755.2250462107208M1079.555890942699 747.0450462107208Q1088.935890942699 747.0450462107208 1096.885890942699 736.4750462107208V729.5050462107208H1084.8958909426988Q1078.2458909426987 729.5050462107208 1075.0358909426986 732.1150462107208Q1071.8158909426988 734.7350462107208 1071.8158909426988 738.7150462107209Q1071.8158909426988 742.6850462107209 1073.7858909426986 744.8650462107208Q1075.7458909426987 747.0450462107208 1079.5558909426986 747.0450462107208M1152.1558909426988 745.8550462107208Q1160.5458909426989 746.8350462107209 1165.0658909426988 750.8050462107208Q1169.5958909426986 754.7850462107208 1169.5958909426986 761.7050462107209Q1169.5958909426986 768.6350462107208 1162.2358909426987 773.5950462107207T1141.2558909426987 778.5550462107208Q1131.4458909426985 778.5550462107208 1125.9958909426987 773.9150462107208Q1120.5458909426986 769.2850462107208 1120.5458909426986 761.7050462107209Q1120.5458909426986 754.1350462107208 1128.4958909426987 749.6650462107208Q1120.9758909426987 747.3750462107207 1120.9758909426987 741.1650462107208T1127.7358909426987 732.6650462107208Q1121.6358909426986 727.2150462107209 1121.6358909426986 718.4350462107208Q1121.6358909426986 709.6650462107208 1127.3558909426988 704.1050462107207T1143.4358909426987 698.5450462107208Q1149.8658909426986 698.5450462107208 1154.8758909426988 700.9450462107208H1173.1858909426987V708.7950462107208H1162.9458909426987Q1165.2358909426987 713.0450462107208 1165.2358909426987 718.1650462107208Q1165.2358909426987 726.6650462107208 1159.5058909426987 732.2250462107208Q1153.7858909426986 737.7850462107208 1143.4358909426987 737.7850462107208H1134.0558909426986Q1130.2458909426987 737.7850462107208 1130.2458909426987 740.7250462107208Q1130.2458909426987 743.1250462107207 1134.0558909426986 743.6750462107208ZM1143.4358909426987 706.7150462107209Q1137.5458909426989 706.7150462107209 1134.2258909426987 709.9850462107208Q1130.8958909426988 713.2550462107208 1130.8958909426988 718.2150462107209T1134.2258909426987 726.3950462107209Q1137.5458909426989 729.6050462107208 1143.4358909426987 729.6050462107208Q1149.3158909426988 729.6050462107208 1152.6458909426988 726.3950462107209Q1155.965890942699 723.1750462107209 1155.965890942699 718.2150462107209T1152.6458909426988 709.9850462107208Q1149.3158909426988 706.7150462107209 1143.4358909426987 706.7150462107209M1138.7458909426987 752.4950462107208Q1134.9258909426985 753.3750462107208 1132.3658909426986 756.2050462107209T1129.8058909426986 762.3650462107208Q1129.8058909426986 765.6850462107209 1132.8558909426988 768.0350462107208Q1135.9158909426988 770.3750462107208 1141.2558909426987 770.3750462107208Q1149.9758909426987 770.3750462107208 1155.1458909426988 767.7050462107209Q1160.3258909426986 765.0350462107208 1160.3258909426986 761.1150462107208Q1160.3258909426986 755.0050462107208 1152.1558909426985 754.0250462107208Z "></path><path fill="#9bcee4" d="M1217.7658909426987 706.7150462107209H1209.3758909426988V699.6350462107208H1227.0358909426986V747.5950462107207H1235.9758909426987V752.1750462107208Q1231.9358909426987 754.6750462107208 1225.235890942699 754.6750462107208T1217.8758909426988 748.9050462107208Q1206.4358909426987 755.3350462107207 1197.3358909426988 755.3350462107207T1184.6858909426987 749.7750462107208Q1181.1458909426988 744.2150462107209 1181.1458909426988 734.4050462107208V706.7150462107209H1172.755890942699V699.6350462107208H1190.4158909426988V734.4050462107208Q1190.4158909426988 740.7250462107208 1192.0458909426989 743.9450462107209Q1193.6858909426987 747.1550462107208 1199.5658909426988 747.1550462107208Q1205.4558909426987 747.1550462107208 1217.765890942699 740.6150462107207ZM1256.9058909426988 713.2550462107208V747.0450462107208H1266.3858909426988V754.1350462107208H1239.2458909426987V747.0450462107208H1247.6358909426988V706.7150462107209H1239.2458909426987V699.6350462107208H1254.8258909426988L1256.1358909426988 705.4150462107208Q1259.8458909426988 703.3450462107207 1262.1358909426988 702.1950462107208Q1264.4258909426987 701.0550462107208 1268.7258909426987 699.7950462107208Q1273.0358909426986 698.5450462107208 1277.0658909426988 698.5450462107208Q1286.4358909426987 698.5450462107208 1289.985890942699 704.1050462107207Q1293.5258909426989 709.6650462107208 1293.5258909426989 719.4750462107208V747.5950462107207H1302.465890942699V752.1750462107208Q1298.425890942699 754.6750462107208 1293.1458909426988 754.6750462107208Q1287.8558909426988 754.6750462107208 1286.0558909426986 752.8850462107207Q1284.255890942699 751.0850462107207 1284.255890942699 747.0450462107208V719.4750462107208Q1284.255890942699 713.1550462107208 1282.6258909426988 709.9350462107208Q1280.985890942699 706.7150462107207 1275.1058909426988 706.7150462107207Q1269.215890942699 706.7150462107207 1256.9058909426988 713.2550462107208M939.3858909426988 803.8550462107207Q939.3858909426988 794.2650462107208 946.5758909426987 788.7050462107208Q953.7758909426988 783.1450462107207 964.3458909426987 783.1450462107207T981.7358909426987 788.1050462107207Q988.5458909426987 793.0650462107208 988.5458909426987 800.4250462107207T985.3258909426987 812.3050462107208Q982.1158909426987 816.8350462107207 975.0858909426987 816.8350462107207T964.7858909426986 812.2550462107207T961.5158909426987 801.1350462107207H970.2358909426987Q970.2358909426987 808.6550462107207 975.1358909426987 808.6550462107207Q979.8258909426987 808.6550462107207 979.8258909426987 801.1350462107207Q979.8258909426987 796.5550462107208 975.6258909426987 793.9450462107206Q971.4258909426987 791.3250462107208 964.7258909426987 791.3250462107208T953.2858909426988 794.4850462107207Q948.5358909426988 797.6450462107207 948.5358909426988 802.8750462107207Q948.5358909426988 808.1150462107207 952.8458909426987 811.7050462107206Q957.1558909426988 815.3050462107208 963.4158909426988 818.4150462107207Q969.6858909426987 821.5150462107207 970.6658909426988 822.0650462107207Q971.6458909426988 822.6050462107207 974.9158909426988 824.2950462107207T979.2258909426987 826.8050462107207Q980.2558909426987 827.6250462107207 982.6058909426987 829.3650462107207Q984.9458909426987 831.1050462107207 985.8158909426987 832.4150462107207T987.8858909426987 835.5750462107208Q989.9558909426987 838.9550462107206 989.9558909426987 843.9750462107206Q989.9558909426987 853.1250462107207 982.3858909426987 857.6550462107207Q974.8058909426987 862.1750462107207 961.4058909426986 862.1750462107207Q947.9958909426987 862.1750462107207 938.4058909426986 856.6150462107207V841.9050462107207H946.0358909426986V850.7250462107206Q953.3358909426987 853.9950462107206 961.8958909426987 853.9950462107206Q970.4458909426987 853.9950462107206 975.5158909426987 850.9450462107206T980.5858909426987 843.0950462107206Q980.5858909426987 838.6350462107207 975.4658909426987 834.9250462107207Q971.4258909426986 832.1950462107206 960.6958909426987 826.8550462107206Q949.9558909426987 821.5150462107206 944.6758909426987 816.6150462107206Q939.3858909426987 811.7050462107206 939.3858909426987 803.8550462107206M1005.6558909426986 813.8750462107206H997.2658909426987V806.7950462107206H1014.9258909426987V854.2050462107206H1024.4058909426988V861.2950462107206H997.1558909426988V854.2050462107206H1005.6558909426988ZM1010.0158909426987 797.0950462107206Q1007.6158909426987 797.0950462107206 1006.0958909426987 795.3450462107206Q1004.5658909426987 793.6050462107206 1004.5658909426987 791.1550462107207Q1004.5658909426987 788.6950462107206 1006.2558909426987 786.8450462107206T1010.3458909426987 784.9950462107206T1014.2658909426987 786.7350462107206Q1015.7958909426986 788.4850462107206 1015.7958909426986 790.9350462107207T1014.1058909426987 795.2350462107206Q1012.4158909426986 797.0950462107206 1010.0158909426987 797.0950462107206M1046.9658909426987 820.4250462107207V854.2150462107206H1056.4458909426987V861.3050462107205H1029.3058909426986V854.2150462107206H1037.7058909426987V813.8850462107207H1029.3058909426986V806.8050462107207H1044.8958909426988L1046.2058909426987 812.5750462107206Q1049.9058909426985 810.5050462107206 1052.1958909426987 809.3650462107207Q1054.4858909426987 808.2150462107206 1058.7958909426989 806.9650462107206Q1063.0958909426986 805.7150462107206 1067.1358909426986 805.7150462107206Q1076.5058909426987 805.7150462107206 1080.0458909426989 811.2750462107207Q1083.5958909426986 816.8350462107207 1083.5958909426986 826.6450462107207V854.7650462107207H1092.5258909426989V859.3450462107207Q1088.4958909426987 861.8450462107207 1083.2058909426987 861.8450462107207Q1077.9258909426987 861.8450462107207 1076.1258909426988 860.0450462107207Q1074.3258909426986 858.2550462107206 1074.3258909426986 854.2150462107206V826.6450462107207Q1074.3258909426986 820.3150462107208 1072.6958909426987 817.1050462107207Q1071.0558909426986 813.8850462107207 1065.1658909426988 813.8850462107207Q1059.2858909426986 813.8850462107207 1046.965890942699 820.4250462107207M1129.5858909426988 853.0050462107206Q1137.985890942699 853.9850462107206 1142.505890942699 857.9650462107206T1147.0258909426989 868.8650462107206T1139.6758909426987 880.7450462107206Q1132.3158909426988 885.7050462107206 1118.6858909426987 885.7050462107206Q1108.8758909426988 885.7050462107206 1103.4258909426987 881.0750462107205T1097.9758909426987 868.8650462107206Q1097.9758909426987 861.2950462107206 1105.9358909426987 856.8250462107205Q1098.4158909426988 854.5350462107206 1098.4158909426988 848.3250462107205Q1098.4158909426988 842.1050462107205 1105.1758909426987 839.8150462107205Q1099.0658909426988 834.3650462107206 1099.0658909426988 825.5950462107205T1104.7958909426989 811.2650462107206Q1110.5158909426987 805.7050462107206 1120.8658909426986 805.7050462107206Q1127.2958909426989 805.7050462107206 1132.3158909426988 808.1050462107205H1150.6258909426988V815.9450462107205H1140.3758909426988Q1142.6658909426988 820.1950462107205 1142.6658909426988 825.3250462107205Q1142.6658909426988 833.8250462107205 1136.9458909426985 839.3850462107205T1120.8658909426986 844.9450462107205H1111.4958909426987Q1107.6758909426985 844.9450462107205 1107.6758909426985 847.8850462107205Q1107.6758909426985 850.2850462107206 1111.4958909426987 850.8250462107205ZM1120.8658909426988 813.8750462107207Q1114.985890942699 813.8750462107207 1111.6558909426988 817.1450462107207Q1108.3358909426988 820.4150462107207 1108.3358909426988 825.3750462107207T1111.6558909426988 833.5550462107207Q1114.985890942699 836.7650462107206 1120.8658909426988 836.7650462107206Q1126.755890942699 836.7650462107206 1130.0758909426986 833.5550462107207Q1133.4058909426988 830.3350462107206 1133.4058909426988 825.3750462107207T1130.0758909426986 817.1450462107207Q1126.755890942699 813.8750462107207 1120.8658909426988 813.8750462107207M1116.1858909426987 859.6550462107207Q1112.3658909426988 860.5250462107207 1109.8058909426986 863.3650462107207Q1107.2458909426987 866.1950462107206 1107.2458909426987 869.5250462107207Q1107.2458909426987 872.8450462107207 1110.2958909426989 875.1850462107207Q1113.3458909426988 877.5350462107208 1118.6858909426987 877.5350462107208Q1127.4058909426988 877.5350462107208 1132.5858909426988 874.8650462107207T1137.7658909426987 868.2650462107207Q1137.7658909426987 862.1650462107207 1129.5858909426988 861.1850462107207ZM1168.9358909426987 820.4250462107207V854.2150462107206H1178.4258909426987V861.3050462107207H1151.2758909426989V854.2150462107206H1159.6758909426987V786.6350462107207H1151.2758909426989V779.5550462107208H1168.9358909426987V812.1450462107207Q1180.1658909426988 805.7150462107206 1189.3258909426986 805.7150462107206Q1198.4758909426987 805.7150462107206 1202.0158909426987 811.2750462107207Q1205.5658909426988 816.8350462107207 1205.5658909426988 826.6450462107207V854.7650462107207H1214.4958909426987V859.3450462107207Q1210.4658909426987 861.8450462107207 1205.1858909426987 861.8450462107207Q1199.8958909426988 861.8450462107207 1198.0958909426986 860.0450462107207Q1196.2958909426989 858.2550462107206 1196.2958909426989 854.2150462107206V826.6450462107207Q1196.2958909426989 820.3150462107208 1194.6658909426988 817.1050462107207Q1193.0258909426989 813.8850462107207 1187.1458909426988 813.8850462107207Q1181.255890942699 813.8850462107207 1168.9358909426987 820.4250462107207 "></path><path fill="#c9ddf0" d="M791.8848909426988 744.4360462107209C798.5928909426988 741.5120462107209 796.8728909426987 737.2120462107208 799.7968909426987 735.6640462107208C801.6888909426988 734.6320462107208 803.0648909426988 736.1800462107208 804.2688909426988 736.5240462107208C804.0968909426988 737.2120462107208 804.0968909426988 737.9000462107208 803.9248909426988 738.7600462107208C803.4078909426987 748.2050462107209 810.6428909426987 756.2820462107209 820.0878909426988 756.8020462107208S837.6118909426988 750.0900462107209 838.1348909426988 740.6450462107209C838.6588909426988 731.2010462107208 831.4288909426988 723.1190462107209 821.9848909426987 722.5920462107208A17.33 17.33 0 0 0 806.6768909426987 730.1600462107208C805.8168909426988 728.4400462107208 804.0968909426988 725.8600462107208 801.3448909426988 725.0000462107208C796.5288909426988 723.4520462107208 791.0248909426988 725.6880462107208 788.1008909426988 729.4720462107208S785.1768909426987 740.8240462107208 777.0928909426988 742.5440462107208C773.6528909426988 743.4040462107208 785.8648909426988 747.1880462107208 791.8848909426988 744.4360462107209M858.4488909426988 802.5720462107208C858.4488909426988 797.4120462107207 854.4928909426988 795.0040462107208 849.5048909426988 795.0040462107208H822.1558909426988L810.4598909426987 763.5280462107208C808.7398909426987 758.0240462107208 803.5798909426987 753.8960462107209 797.3878909426987 753.8960462107209Q794.0338909426987 753.8960462107209 791.1958909426987 755.4440462107209C766.2558909426987 768.0000462107208 751.8078909426987 791.0480462107208 746.3038909426987 824.9320462107208H778.9838909426987C779.8438909426987 810.6560462107209 782.4238909426988 793.9720462107209 794.1198909426987 783.9960462107208L807.5358909426988 804.1200462107208C809.0838909426988 807.0440462107208 812.1798909426988 809.2800462107209 815.6198909426987 809.2800462107209H849.3318909426987C854.6638909426987 809.1080462107209 858.4478909426987 807.7320462107209 858.4478909426987 802.5720462107208M866.3608909426987 817.8800462107208C865.6728909426987 816.5040462107208 862.4048909426988 811.0000462107209 855.6968909426987 811.0000462107209C848.1288909426987 811.0000462107209 845.0328909426987 818.0520462107208 844.8608909426987 818.2240462107209C844.6888909426987 818.740046210721 844.6888909426987 819.4280462107208 845.0328909426987 819.7720462107209C845.3768909426988 820.288046210721 845.8928909426987 820.6320462107209 846.4088909426987 820.6320462107209H864.8128909426987C865.8448909426987 820.6320462107209 866.5328909426987 819.9440462107209 866.5328909426987 818.9120462107209C866.7048909426987 818.5680462107209 866.5328909426987 818.0520462107208 866.3608909426987 817.8800462107208M902.4808909426987 735.6650462107209C899.3848909426987 734.288046210721 895.9448909426987 735.836046210721 894.5688909426988 738.932046210721L868.5958909426987 799.8200462107209C867.2198909426987 802.9160462107209 868.7678909426987 806.3560462107208 871.8638909426987 807.7320462107208C872.5518909426987 808.0760462107207 873.4118909426987 808.2480462107208 874.2718909426987 808.2480462107208C876.6798909426986 808.2480462107208 878.9158909426988 806.8720462107208 879.7758909426987 804.6360462107208L884.4198909426987 793.6280462107209L893.1918909426987 811.8600462107208H880.9798909426987A4.26 4.26 0 0 0 876.6798909426986 816.1600462107208C876.6798909426986 818.5680462107209 878.5718909426987 820.4600462107209 880.9798909426987 820.4600462107209H900.0718909426987C901.6198909426987 820.4600462107209 902.9958909426987 819.7720462107209 903.6838909426987 818.3960462107209C904.5438909426987 817.1920462107208 904.5438909426987 815.6440462107208 903.8558909426987 814.2680462107209L888.8918909426988 782.9640462107209L905.5758909426987 743.576046210721C906.9518909426987 740.480046210721 905.5758909426987 737.0400462107209 902.4798909426987 735.6640462107209 "></path></g><rect width="561" height="230" x="719.5" y="635" id="space-saver" fill="transparent" stroke="transparent"></rect></g></svg>